<?xml version="1.0" standalone="no"?>
<svg xmlns:xlink="http://www.w3.org/1999/xlink" id="wave" style="transform:rotate(0deg); transition: 0.3s" viewBox="0 0 1440 160" version="1.1" xmlns="http://www.w3.org/2000/svg"><defs><linearGradient id="sw-gradient-0" x1="0" x2="0" y1="1" y2="0"><stop stop-color="rgba(255, 255, 255, 1)" offset="0%"/><stop stop-color="rgba(255, 255, 255, 1)" offset="100%"/></linearGradient></defs><path style="transform:translate(0, 0px); opacity:1" fill="url(#sw-gradient-0)" d="M0,32L60,48C120,64,240,96,360,106.7C480,117,600,107,720,93.3C840,80,960,64,1080,50.7C1200,37,1320,27,1440,26.7C1560,27,1680,37,1800,50.7C1920,64,2040,80,2160,82.7C2280,85,2400,75,2520,77.3C2640,80,2760,96,2880,101.3C3000,107,3120,101,3240,82.7C3360,64,3480,32,3600,24C3720,16,3840,32,3960,32C4080,32,4200,16,4320,32C4440,48,4560,96,4680,120C4800,144,4920,144,5040,136C5160,128,5280,112,5400,101.3C5520,91,5640,85,5760,90.7C5880,96,6000,112,6120,109.3C6240,107,6360,85,6480,64C6600,43,6720,21,6840,24C6960,27,7080,53,7200,61.3C7320,69,7440,59,7560,64C7680,69,7800,91,7920,90.7C8040,91,8160,69,8280,72C8400,75,8520,101,8580,114.7L8640,128L8640,160L8580,160C8520,160,8400,160,8280,160C8160,160,8040,160,7920,160C7800,160,7680,160,7560,160C7440,160,7320,160,7200,160C7080,160,6960,160,6840,160C6720,160,6600,160,6480,160C6360,160,6240,160,6120,160C6000,160,5880,160,5760,160C5640,160,5520,160,5400,160C5280,160,5160,160,5040,160C4920,160,4800,160,4680,160C4560,160,4440,160,4320,160C4200,160,4080,160,3960,160C3840,160,3720,160,3600,160C3480,160,3360,160,3240,160C3120,160,3000,160,2880,160C2760,160,2640,160,2520,160C2400,160,2280,160,2160,160C2040,160,1920,160,1800,160C1680,160,1560,160,1440,160C1320,160,1200,160,1080,160C960,160,840,160,720,160C600,160,480,160,360,160C240,160,120,160,60,160L0,160Z"/></svg>