<?xml version="1.0" standalone="no"?>
<svg xmlns:xlink="http://www.w3.org/1999/xlink" id="wave" style="transform:rotate(0deg); transition: 0.3s" viewBox="0 0 1440 410" version="1.1" xmlns="http://www.w3.org/2000/svg"><defs><linearGradient id="sw-gradient-0" x1="0" x2="0" y1="1" y2="0"><stop stop-color="rgba(255, 255, 255, 1)" offset="0%"/><stop stop-color="rgba(255, 255, 255, 1)" offset="100%"/></linearGradient></defs><path style="transform:translate(0, 0px); opacity:1" fill="url(#sw-gradient-0)" d="M0,82L80,109.3C160,137,320,191,480,205C640,219,800,191,960,157.2C1120,123,1280,82,1440,102.5C1600,123,1760,205,1920,246C2080,287,2240,287,2400,300.7C2560,314,2720,342,2880,314.3C3040,287,3200,205,3360,205C3520,205,3680,287,3840,328C4000,369,4160,369,4320,334.8C4480,301,4640,232,4800,191.3C4960,150,5120,137,5280,150.3C5440,164,5600,205,5760,246C5920,287,6080,328,6240,334.8C6400,342,6560,314,6720,252.8C6880,191,7040,96,7200,68.3C7360,41,7520,82,7680,136.7C7840,191,8000,260,8160,252.8C8320,246,8480,164,8640,143.5C8800,123,8960,164,9120,170.8C9280,178,9440,150,9600,116.2C9760,82,9920,41,10080,27.3C10240,14,10400,27,10560,54.7C10720,82,10880,123,11040,123C11200,123,11360,82,11440,61.5L11520,41L11520,410L11440,410C11360,410,11200,410,11040,410C10880,410,10720,410,10560,410C10400,410,10240,410,10080,410C9920,410,9760,410,9600,410C9440,410,9280,410,9120,410C8960,410,8800,410,8640,410C8480,410,8320,410,8160,410C8000,410,7840,410,7680,410C7520,410,7360,410,7200,410C7040,410,6880,410,6720,410C6560,410,6400,410,6240,410C6080,410,5920,410,5760,410C5600,410,5440,410,5280,410C5120,410,4960,410,4800,410C4640,410,4480,410,4320,410C4160,410,4000,410,3840,410C3680,410,3520,410,3360,410C3200,410,3040,410,2880,410C2720,410,2560,410,2400,410C2240,410,2080,410,1920,410C1760,410,1600,410,1440,410C1280,410,1120,410,960,410C800,410,640,410,480,410C320,410,160,410,80,410L0,410Z"/></svg>