<svg id="visual" viewBox="0 0 900 600" width="900" height="600" xmlns="http://www.w3.org/2000/svg" xmlns:xlink="http://www.w3.org/1999/xlink" version="1.1"><path d="M0 541L30 534C60 527 120 513 180 518.5C240 524 300 549 360 564.2C420 579.3 480 584.7 540 580.7C600 576.7 660 563.3 720 547.5C780 531.7 840 513.3 870 504.2L900 495L900 601L870 601C840 601 780 601 720 601C660 601 600 601 540 601C480 601 420 601 360 601C300 601 240 601 180 601C120 601 60 601 30 601L0 601Z" fill="#fff" stroke-linecap="round" stroke-linejoin="miter"></path></svg>